:FULLY-SPECIFIED
:FORCE-ALL-JOINTS-BE-3DOF
:DEGREES
2039
root -3.1599 14.8735 21.4123 175.8 -7.97783 173.321
lfemur -10.2831 7.85205 -19.3462
ltibia 55.784 -0 0
lfoot -24.7907 24.6233 0.0546653
ltoes -38.1976 0 0
rfemur -39.3947 -8.2577 6.31002
rtibia 45.5594 -0 0
rfoot 20.9422 -3.99334 1.39906
rtoes 6.3653 -0 0
lowerback 14.4567 1.20633 -6.66477
upperback 0.548672 0.519052 1.44812
thorax -7.65547 0.475393 5.2018
lowerneck -3.65669 -5.2357 -7.42328
upperneck 9.9446 -6.94655 1.73774
head 4.25428 -3.74754 1.20615
lclavicle -6.8657e-14 -2.499e-15 -7.351e-30
lhumerus -46.8193 -15.1252 99.0493
lradius 88.6803 -0 0
lwrist 41.7342 0 0
lhand -25.5273 33.0266 -0.00160721
lfingers 7.12502 -0 0
lthumb 1.00236 63.0038 -0.00155228
rclavicle -6.8657e-14 -2.499e-15 -7.351e-30
rhumerus 27.9423 -15.2977 -87.5836
rradius 29.3501 -0 0
rwrist 56.8598 0 0
rhand -1.95443 -35.2473 -0.0547447
rfingers 7.12502 -0 0
rthumb 23.7152 -63.7824 -0.0451059
2040
root -3.18551 14.8682 21.2219 175.387 -9.3391 173.233
lfemur -9.03022 7.25519 -19.6579
ltibia 55.4423 -0 0
lfoot -25.317 24.5602 0.0485981
ltoes -38.7614 0 0
rfemur -40.0509 -8.4697 6.10389
rtibia 44.5418 -0 0
rfoot 21.8843 -3.09963 1.24286
rtoes 6.65585 -0 0
lowerback 14.5726 1.32115 -6.89306
upperback 0.603449 0.610815 1.35312
thorax -7.67346 0.522216 5.21446
lowerneck -3.59053 -5.71266 -7.77876
upperneck 10.1882 -7.6122 1.99879
head 4.33175 -4.08013 1.32017
lclavicle -7.06431e-14 -4.75286e-15 -6.53626e-30
lhumerus -49.318 -15.2513 100.619
lradius 91.0703 -0 0
lwrist 44.5521 0 0
lhand -25.5237 32.7546 -0.00142902
lfingers 7.12502 -0 0
lthumb 1.00584 62.7317 -0.00138017
rclavicle -7.06431e-14 -4.75286e-15 -6.53626e-30
rhumerus 31.6492 -16.28 -88.4538
rradius 26.6097 -0 0
rwrist 61.4063 0 0
rhand -2.13869 -35.0665 -0.0486753
rfingers 7.12502 -0 0
rthumb 23.5387 -63.6268 -0.0401054
2041
root -3.20968 14.8632 21.0421 174.998 -10.6247 173.159
lfemur -7.84601 6.6981 -19.9637
ltibia 55.1196 -0 0
lfoot -25.8137 24.5006 0.0423402
ltoes -39.2934 0 0
rfemur -40.6699 -8.67196 5.91146
rtibia 43.5812 -0 0
rfoot 22.7712 -2.25849 1.08197
rtoes 6.93012 -0 0
lowerback 14.6817 1.42995 -7.10836
upperback 0.655018 0.69752 1.26352
thorax -7.69043 0.566421 5.2264
lowerneck -3.52529 -6.1626 -8.11519
upperneck 10.4156 -8.24156 2.24298
head 4.40429 -4.39422 1.42744
lclavicle -7.25179e-14 -6.88046e-15 -5.69548e-30
lhumerus -51.6801 -15.3095 102.105
lradius 93.3264 -0 0
lwrist 47.2123 0 0
lhand -25.5203 32.4978 -0.00124515
lfingers 7.12502 -0 0
lthumb 1.00911 62.4749 -0.00120259
rclavicle -7.25179e-14 -6.88046e-15 -5.69548e-30
rhumerus 35.1795 -17.1556 -89.3387
rradius 24.0228 -0 0
rwrist 65.698 0 0
rhand -2.31261 -34.8958 -0.0424124
rfingers 7.12502 -0 0
rthumb 23.3721 -63.48 -0.0349453
2042
root -3.23227 14.8585 20.8741 174.635 -11.8263 173.098
lfemur -6.73795 6.18332 -20.2596
ltibia 54.8182 -0 0
lfoot -26.2778 24.445 0.0360265
ltoes -39.7906 0 0
rfemur -41.2481 -8.8628 5.73357
rtibia 42.6836 -0 0
rfoot 23.5977 -1.4749 0.919899
rtoes 7.1864 -0 0
lowerback 14.7832 1.53199 -7.30935
upperback 0.703082 0.77861 1.17987
thorax -7.70628 0.607728 5.23754
lowerneck -3.46188 -6.58258 -8.43021
upperneck 10.6261 -8.8305 2.46923
head 4.47157 -4.68784 1.52735
lclavicle -7.42697e-14 -8.86851e-15 -4.84692e-30
lhumerus -53.8884 -15.3105 103.495
lradius 95.4345 -0 0
lwrist 49.6979 0 0
lhand -25.5171 32.2578 -0.00105959
lfingers 7.12502 -0 0
lthumb 1.01218 62.235 -0.00102337
rclavicle -7.42697e-14 -8.86851e-15 -4.84692e-30
rhumerus 38.5057 -17.9249 -90.219
rradius 21.6056 -0 0
rwrist 69.7083 0 0
rhand -2.4751 -34.7363 -0.0360921
rfingers 7.12502 -0 0
rthumb 23.2164 -63.3428 -0.029738
